<svg id="Capa_1" data-name="Capa 1" xmlns="http://www.w3.org/2000/svg" viewBox="0 0 295.33 443"><defs><style>.cls-1{fill:#fff;}</style></defs><title>watch-icon</title><circle cx="147.67" cy="221.5" r="118.21"/><path class="cls-1" d="M256.42,273.62a17.33,17.33,0,0,0,4.4-.89l34.33,34.33a9,9,0,0,0,12.76-12.76L273.57,260a17.33,17.33,0,0,0,.89-4.4,17.8,17.8,0,0,0-9-15.27V174.4a9,9,0,0,0-18,0v65.91a17.8,17.8,0,0,0-9,15.27A18.06,18.06,0,0,0,256.42,273.62Z" transform="translate(-108.33 -34.5)"/><path d="M351.44,143.52L329.64,41.79a9.25,9.25,0,0,0-9-7.29H191.4a9.25,9.25,0,0,0-9,7.29l-21.8,101.72a147.24,147.24,0,0,0,0,225l21.8,101.72a9.25,9.25,0,0,0,9,7.29H320.6a9.25,9.25,0,0,0,9-7.29l21.8-101.72A147.24,147.24,0,0,0,351.44,143.52ZM198.86,53H313.14l16.06,75a146.41,146.41,0,0,0-139.29-3.82l-0.07.34c-2.34,1.18-4.78,2.18-7,3.48ZM313.14,459H198.86l-16.06-75a146.52,146.52,0,0,0,146.4,0ZM256,385.21A129.21,129.21,0,1,1,385.21,256,129.21,129.21,0,0,1,256,385.21Z" transform="translate(-108.33 -34.5)"/></svg>